<svg width="24" height="24" viewBox="0 0 24 24" fill="none" xmlns="http://www.w3.org/2000/svg">
<g clip-path="url(#clip0_6_3)">
<path d="M12 23.5C18.3513 23.5 23.5 18.3513 23.5 12C23.5 5.64873 18.3513 0.5 12 0.5C5.64873 0.5 0.5 5.64873 0.5 12C0.5 18.3513 5.64873 23.5 12 23.5Z" fill="white" stroke="#E3E4F1"/>
<path d="M12 24C18.6274 24 24 18.6274 24 12C24 5.37258 18.6274 0 12 0C5.37258 0 0 5.37258 0 12C0 18.6274 5.37258 24 12 24Z" fill="url(#paint0_linear_6_3)"/>
<path d="M8 12.3041L10.6959 15L16.6959 9" stroke="white" stroke-width="2"/>
</g>
<defs>
<linearGradient id="paint0_linear_6_3" x1="-12" y1="12" x2="12" y2="36" gradientUnits="userSpaceOnUse">
<stop stop-color="#55DDFF"/>
<stop offset="1" stop-color="#C058F3"/>
</linearGradient>
<clipPath id="clip0_6_3">
<rect width="24" height="24" fill="white"/>
</clipPath>
</defs>
</svg>
